<svg xmlns="http://www.w3.org/2000/svg" xmlns:svg="http://www.w3.org/2000/svg" xmlns:xlink="http://www.w3.org/1999/xlink" id="svg3489" width="64" height="64" version="1.1"><defs id="defs3491"><linearGradient id="linearGradient4542"><stop style="stop-color:#95989a;stop-opacity:1" id="stop4544" offset="0"/><stop style="stop-color:#95989a;stop-opacity:0" id="stop4546" offset="1"/></linearGradient><radialGradient id="radialGradient4281" cx="23.896" cy="3.99" r="20.397" gradientTransform="matrix(0,1.2316483,-1.625754,0,18.486966,-28.721977)" gradientUnits="userSpaceOnUse"><stop style="stop-color:#999;stop-opacity:1" id="stop4283" offset="0"/><stop id="stop4309" offset=".088" style="stop-color:#dbdbdb;stop-opacity:1"/><stop id="stop4307" offset=".166" style="stop-color:#999;stop-opacity:1"/><stop id="stop4305" offset=".235" style="stop-color:#dbdbdb;stop-opacity:1"/><stop id="stop4303" offset=".315" style="stop-color:#999;stop-opacity:1"/><stop id="stop4301" offset=".4" style="stop-color:#dbdbdb;stop-opacity:1"/><stop id="stop4299" offset=".482" style="stop-color:#999;stop-opacity:1"/><stop id="stop4297" offset=".567" style="stop-color:#dbdbdb;stop-opacity:1"/><stop id="stop4295" offset=".638" style="stop-color:#999;stop-opacity:1"/><stop id="stop4293" offset=".716" style="stop-color:#dbdbdb;stop-opacity:1"/><stop id="stop4291" offset=".796" style="stop-color:#999;stop-opacity:1"/><stop style="stop-color:#dbdbdb;stop-opacity:1" id="stop4285" offset=".861"/><stop style="stop-color:#999;stop-opacity:1" id="stop4287" offset=".932"/><stop style="stop-color:#7c7c7c;stop-opacity:1" id="stop4289" offset="1"/></radialGradient><linearGradient id="linearGradient4004"><stop style="stop-color:#c590fa;stop-opacity:1" id="stop4006" offset="0"/><stop style="stop-color:#b57df9;stop-opacity:1" id="stop4008" offset="1"/></linearGradient><radialGradient id="radialGradient3924" cx="23.896" cy="3.99" r="20.397" gradientTransform="matrix(0,1.2316483,-1.625754,0,18.486966,-28.721977)" gradientUnits="userSpaceOnUse"><stop style="stop-color:#fafafa;stop-opacity:1" id="stop3926" offset="0"/><stop style="stop-color:#f0f0f0;stop-opacity:1" id="stop3928" offset=".262"/><stop style="stop-color:#e6e6e6;stop-opacity:1" id="stop3930" offset=".661"/><stop style="stop-color:#c8c8c8;stop-opacity:1" id="stop3932" offset="1"/></radialGradient><linearGradient id="linearGradient6436-9" x1="38.851" x2="34.131" y1="41.608" y2="37.81" gradientUnits="userSpaceOnUse" xlink:href="#linearGradient6455-7"/><linearGradient id="linearGradient6455-7"><stop id="stop6457-5" offset="0" style="stop-color:#fbac9b;stop-opacity:1"/><stop id="stop6459-8" offset="1" style="stop-color:#fcfafc;stop-opacity:1"/></linearGradient><linearGradient id="linearGradient6419-5" x1="38.851" x2="34.131" y1="41.608" y2="37.81" gradientUnits="userSpaceOnUse" xlink:href="#linearGradient6413-0"/><linearGradient id="linearGradient6413-0"><stop id="stop6415-1" offset="0" style="stop-color:#feffff;stop-opacity:1"/><stop id="stop6417-4" offset="1" style="stop-color:#fe70ca;stop-opacity:1"/></linearGradient><radialGradient id="radialGradient6360-8" cx="36.491" cy="39.709" r="3.159" fx="36.491" fy="39.709" gradientUnits="userSpaceOnUse" xlink:href="#linearGradient6303-33-0"/><linearGradient id="linearGradient6303-33-0"><stop id="stop6305-1-0" offset="0" style="stop-color:#fff;stop-opacity:1"/><stop id="stop6307-5-0" offset="1" style="stop-color:#fff;stop-opacity:0"/></linearGradient><radialGradient id="radialGradient6326-0" cx="36.491" cy="39.709" r="3.159" fx="36.491" fy="39.709" gradientUnits="userSpaceOnUse" xlink:href="#linearGradient6303-3-2"/><linearGradient id="linearGradient6303-3-2"><stop id="stop6305-3-0" offset="0" style="stop-color:#fff;stop-opacity:1"/><stop id="stop6307-1-0" offset="1" style="stop-color:#fff;stop-opacity:0"/></linearGradient><radialGradient id="radialGradient6309-9" cx="36.491" cy="39.709" r="3.159" fx="36.491" fy="39.709" gradientUnits="userSpaceOnUse" xlink:href="#linearGradient6303-4"/><linearGradient id="linearGradient6303-4"><stop id="stop6305-33" offset="0" style="stop-color:#fff;stop-opacity:1"/><stop id="stop6307-9" offset="1" style="stop-color:#fff;stop-opacity:0"/></linearGradient><radialGradient id="radialGradient6276-9" cx="32.373" cy="31.405" r="3.857" fx="32.373" fy="31.405" gradientTransform="matrix(2.0664963,0,0,2.0664963,-34.525221,-33.493375)" gradientUnits="userSpaceOnUse" xlink:href="#linearGradient6088-6-1"/><linearGradient id="linearGradient6088-6-1"><stop id="stop6090-2-0" offset="0" style="stop-color:#ff54d2;stop-opacity:0"/><stop id="stop6257-4-6" offset=".324" style="stop-color:#ff54d2;stop-opacity:0"/><stop id="stop6255-3-6" offset=".561" style="stop-color:#ff54d2;stop-opacity:.2521739"/><stop id="stop6092-9-6" offset="1" style="stop-color:#ff54d2;stop-opacity:.47826087"/></linearGradient><radialGradient id="radialGradient6215-4-2" cx="32.373" cy="31.405" r="3.857" fx="32.373" fy="31.405" gradientTransform="matrix(2.0676498,0.55402509,-0.5348486,1.9960821,-17.765612,-49.217228)" gradientUnits="userSpaceOnUse" xlink:href="#linearGradient6191-8-3"/><linearGradient id="linearGradient6191-8-3"><stop id="stop6193-75-7" offset="0" style="stop-color:#fff;stop-opacity:0"/><stop id="stop6197-3-4" offset=".405" style="stop-color:#fff;stop-opacity:0"/><stop id="stop6195-7-2" offset="1" style="stop-color:#fff;stop-opacity:.47826087"/></linearGradient><radialGradient id="radialGradient6215-6" cx="32.373" cy="31.405" r="3.857" fx="32.373" fy="31.405" gradientTransform="matrix(2.0676498,0.55402509,-0.5348486,1.9960821,-17.765612,-49.217228)" gradientUnits="userSpaceOnUse" xlink:href="#linearGradient6191-7-9"/><linearGradient id="linearGradient6191-7-9"><stop id="stop6193-7-3" offset="0" style="stop-color:#fff;stop-opacity:0"/><stop id="stop6197-2-2" offset=".405" style="stop-color:#fff;stop-opacity:0"/><stop id="stop6195-2-1" offset="1" style="stop-color:#fff;stop-opacity:.47826087"/></linearGradient><radialGradient id="radialGradient6172-68" cx="32.373" cy="31.405" r="3.857" fx="32.373" fy="31.405" gradientTransform="matrix(2.0676498,0.55402509,-0.5348486,1.9960821,-17.765612,-49.217228)" gradientUnits="userSpaceOnUse" xlink:href="#linearGradient6191-9"/><linearGradient id="linearGradient6191-9"><stop id="stop6193-8" offset="0" style="stop-color:#fff;stop-opacity:0"/><stop id="stop6197-8" offset=".405" style="stop-color:#fff;stop-opacity:0"/><stop id="stop6195-9" offset="1" style="stop-color:#fff;stop-opacity:.47826087"/></linearGradient><linearGradient id="linearGradient6137-8" x1="68.313" x2="68.313" y1="52.925" y2="65.922" gradientTransform="matrix(0.16581446,0,0,0.12436084,20.904625,22.576664)" gradientUnits="userSpaceOnUse" xlink:href="#linearGradient3990-3-1"/><linearGradient id="linearGradient3990-3-1"><stop id="stop3992-0-0" offset="0" style="stop-color:#fff;stop-opacity:1"/><stop id="stop3994-2-1" offset="1" style="stop-color:#fff;stop-opacity:0"/></linearGradient><linearGradient id="linearGradient6153-0" x1="92.696" x2="92.696" y1="16.555" y2="48.984" gradientUnits="userSpaceOnUse" xlink:href="#linearGradient4316-4-6-6"/><linearGradient id="linearGradient4316-4-6-6"><stop id="stop4318-4-4-6" offset="0" style="stop-color:#fff;stop-opacity:1"/><stop id="stop4320-2-2-6" offset=".338" style="stop-color:#fff;stop-opacity:.23529412"/><stop id="stop4322-4-5-5" offset=".62" style="stop-color:#fff;stop-opacity:.15686275"/><stop id="stop4324-4-1-5" offset="1" style="stop-color:#fff;stop-opacity:.39215687"/></linearGradient><radialGradient id="radialGradient6151-7" cx="32.373" cy="31.405" r="3.857" fx="32.373" fy="31.405" gradientTransform="matrix(2.0664963,0,0,2.0664963,-34.525221,-33.493375)" gradientUnits="userSpaceOnUse" xlink:href="#linearGradient6088-74"/><linearGradient id="linearGradient6088-74"><stop id="stop6090-5" offset="0" style="stop-color:#ff54d2;stop-opacity:0"/><stop id="stop6257-5" offset=".324" style="stop-color:#f62b68;stop-opacity:1"/><stop id="stop6255-6" offset=".561" style="stop-color:#ff0105;stop-opacity:1"/><stop id="stop6092-0" offset="1" style="stop-color:#ff54d2;stop-opacity:.47826087"/></linearGradient><linearGradient id="linearGradient5980-2" x1="92.696" x2="92.696" y1="16.555" y2="48.984" gradientUnits="userSpaceOnUse" xlink:href="#linearGradient4316-4-0"/><linearGradient id="linearGradient4316-4-0"><stop id="stop4318-4-5" offset="0" style="stop-color:#fff;stop-opacity:1"/><stop id="stop4320-2-9" offset=".338" style="stop-color:#fff;stop-opacity:.23529412"/><stop id="stop4322-4-1" offset=".62" style="stop-color:#fff;stop-opacity:.15686275"/><stop id="stop4324-4-8" offset="1" style="stop-color:#fff;stop-opacity:.39215687"/></linearGradient><radialGradient id="radialGradient6140-3" cx="95.838" cy="95.388" r="9.498" fx="95.838" fy="95.388" gradientTransform="matrix(0.57546739,-8.5809842e-8,8.0624837e-8,0.54069512,-23.241092,-19.788163)" gradientUnits="userSpaceOnUse" xlink:href="#linearGradient4278-3"/><linearGradient id="linearGradient4278-3"><stop id="stop4280-6" offset="0" style="stop-color:#000;stop-opacity:0"/><stop id="stop4286-1" offset=".5" style="stop-color:#000;stop-opacity:0"/><stop id="stop4282-24" offset="1" style="stop-color:#000;stop-opacity:1"/></linearGradient><radialGradient id="radialGradient6143-9" cx="23.896" cy="3.99" r="20.397" gradientTransform="matrix(0,0.52770403,-0.69656002,0,34.779273,14.552384)" gradientUnits="userSpaceOnUse" xlink:href="#linearGradient2867-449-88-871-390-598-476-591-434-148-57-177-691-4"/><linearGradient id="linearGradient2867-449-88-871-390-598-476-591-434-148-57-177-691-4"><stop id="stop7191-4" offset="0" style="stop-color:#612f91;stop-opacity:1"/><stop id="stop7197-2" offset="1" style="stop-color:#1a4aa2;stop-opacity:1"/></linearGradient><linearGradient id="linearGradient6145-6" x1="7.078" x2="7.078" y1="3.082" y2="45.369" gradientTransform="matrix(0.22110591,0,0,0.22110594,26.693457,26.693296)" gradientUnits="userSpaceOnUse" xlink:href="#linearGradient3087-408-5"/><linearGradient id="linearGradient3087-408-5" x1="7.078" x2="7.078" y1="3.082" y2="45.369" gradientTransform="matrix(0.22110724,0,0,0.22110728,6.6934256,6.693263)" gradientUnits="userSpaceOnUse"><stop id="stop7201-5" offset="0" style="stop-color:#170418;stop-opacity:1"/><stop id="stop7203-2" offset="1" style="stop-color:#50386b;stop-opacity:1"/></linearGradient><radialGradient id="radialGradient6048-1" cx="32" cy="21.239" r="10.498" fx="32" fy="21.239" gradientTransform="matrix(0,2.0115211,-4.6336383,0,130.41512,-43.129397)" gradientUnits="userSpaceOnUse" xlink:href="#linearGradient6042-1"/><linearGradient id="linearGradient6042-1"><stop id="stop6044-9" offset="0" style="stop-color:#07132d;stop-opacity:1"/><stop id="stop6046-9" offset="1" style="stop-color:#425479;stop-opacity:1"/></linearGradient><radialGradient id="radialGradient5957-8" cx="91.35" cy="16.448" r="15.639" fx="91.35" fy="16.448" gradientTransform="matrix(0,1.9804002,-1.9804002,0,123.92313,-164.4618)" gradientUnits="userSpaceOnUse" xlink:href="#linearGradient4507-6"/><linearGradient id="linearGradient4507-6"><stop id="stop4509-3" offset="0" style="stop-color:#2d3955;stop-opacity:1"/><stop id="stop5959-4" offset=".725" style="stop-color:#2b3853;stop-opacity:1"/><stop id="stop5961-1" offset=".75" style="stop-color:#192640;stop-opacity:1"/><stop id="stop4511-1" offset="1" style="stop-color:#08142e;stop-opacity:1"/></linearGradient><linearGradient id="linearGradient4314-4" x1="92.696" x2="92.696" y1="16.555" y2="48.984" gradientUnits="userSpaceOnUse" xlink:href="#linearGradient4316-5"/><linearGradient id="linearGradient4316-5"><stop id="stop4318-1" offset="0" style="stop-color:#fff;stop-opacity:1"/><stop id="stop4320-9" offset=".338" style="stop-color:#fff;stop-opacity:.23529412"/><stop id="stop4322-42" offset=".62" style="stop-color:#fff;stop-opacity:.15686275"/><stop id="stop4324-9" offset="1" style="stop-color:#fff;stop-opacity:.39215687"/></linearGradient><linearGradient id="linearGradient7103" x1="91.566" x2="91.566" y1="16.543" y2="48.631" gradientUnits="userSpaceOnUse" xlink:href="#linearGradient4220-7"/><linearGradient id="linearGradient4220-7"><stop id="stop4222-7" offset="0" style="stop-color:#7a8498;stop-opacity:1"/><stop id="stop4224-0" offset="1" style="stop-color:#34405c;stop-opacity:1"/></linearGradient><linearGradient id="linearGradient4170" x1="51.2" x2="51.2" y1="8.114" y2="56.115" gradientTransform="matrix(0.95833332,0,0,0.95833332,-17.176189,1.3333338)" gradientUnits="userSpaceOnUse" xlink:href="#linearGradient4164"/><linearGradient id="linearGradient4164"><stop id="stop4166" offset="0" style="stop-color:#b6b6b6;stop-opacity:1"/><stop id="stop4216" offset=".331" style="stop-color:#a4a4a4;stop-opacity:1"/><stop id="stop4168" offset="1" style="stop-color:#c5c5c5;stop-opacity:1"/></linearGradient><linearGradient id="linearGradient5013" x1="71.204" x2="71.204" y1="15.369" y2="40.496" gradientTransform="matrix(2.3268746,0,0,2.3268746,-135.94475,-32.842783)" gradientUnits="userSpaceOnUse" xlink:href="#linearGradient4806"/><linearGradient id="linearGradient4806"><stop id="stop4808" offset="0" style="stop-color:#fff;stop-opacity:1"/><stop id="stop4810" offset=".424" style="stop-color:#fff;stop-opacity:.23529412"/><stop id="stop4812" offset=".821" style="stop-color:#fff;stop-opacity:.15686275"/><stop id="stop4814" offset="1" style="stop-color:#fff;stop-opacity:.39215687"/></linearGradient><radialGradient id="radialGradient6874-1-9" cx="23.896" cy="3.99" r="20.397" fx="23.896" fy="3.99" gradientTransform="matrix(0,4.1566535,-5.4867089,0,53.892518,-97.439545)" gradientUnits="userSpaceOnUse" xlink:href="#radialGradient3093-0-3-6"/><radialGradient id="radialGradient3093-0-3-6" cx="23.896" cy="3.99" r="20.397" gradientTransform="matrix(0,1.2316483,-1.625754,0,18.486966,-28.721977)" gradientUnits="userSpaceOnUse"><stop id="stop3244-9-33-7-0" offset="0" style="stop-color:#c3c3c3;stop-opacity:1"/><stop id="stop3246-3-5-0-8" offset=".262" style="stop-color:#a9a9a9;stop-opacity:1"/><stop id="stop3248-1-7-8-8" offset=".661" style="stop-color:#95989a;stop-opacity:1"/><stop id="stop3250-9-3-0-5" offset="1" style="stop-color:#7c7c7c;stop-opacity:1"/></radialGradient><linearGradient id="linearGradient3820-7-2"><stop id="stop3822-2-6" offset="0" style="stop-color:#3d3d3d;stop-opacity:1"/><stop id="stop3864-8-7" offset=".5" style="stop-color:#686868;stop-opacity:.49803922"/><stop id="stop3824-1-2" offset="1" style="stop-color:#686868;stop-opacity:0"/></linearGradient><radialGradient id="radialGradient3487" cx="99.157" cy="186.171" r="62.769" fx="99.157" fy="186.171" gradientTransform="matrix(1,0,0,0.1666667,0,155.14216)" gradientUnits="userSpaceOnUse" xlink:href="#linearGradient3820-7-2"/><linearGradient id="linearGradient3132" x1="38.851" x2="34.131" y1="41.608" y2="37.81" gradientTransform="matrix(0.3803794,0,0,0.39792162,13.913761,13.556489)" gradientUnits="userSpaceOnUse" xlink:href="#linearGradient6455-7"/><linearGradient id="linearGradient3135" x1="38.851" x2="34.131" y1="41.608" y2="37.81" gradientTransform="matrix(0.5438829,0,0,0.56896553,6.9717407,5.743923)" gradientUnits="userSpaceOnUse" xlink:href="#linearGradient6413-0"/><radialGradient id="radialGradient3138" cx="36.491" cy="39.709" r="3.159" fx="36.491" fy="39.709" gradientTransform="matrix(0.5438829,0,0,0.56896553,11.534405,8.5055355)" gradientUnits="userSpaceOnUse" xlink:href="#linearGradient6303-33-0"/><radialGradient id="radialGradient3141" cx="36.491" cy="39.709" r="3.159" fx="36.491" fy="39.709" gradientTransform="matrix(1.9066219,-1.1007887,0.62631081,1.0848021,-69.064447,21.714946)" gradientUnits="userSpaceOnUse" xlink:href="#linearGradient6303-3-2"/><radialGradient id="radialGradient3144" cx="36.491" cy="39.709" r="3.159" fx="36.491" fy="39.709" gradientTransform="matrix(2.3693784,-1.3679613,0.7783228,1.3480947,-80.222877,35.170011)" gradientUnits="userSpaceOnUse" xlink:href="#linearGradient6303-4"/><radialGradient id="radialGradient3147" cx="32.373" cy="31.405" r="3.857" fx="32.373" fy="31.405" gradientTransform="matrix(-1.5152343,-1.5152343,1.5152343,-1.5152343,33.466002,126.65225)" gradientUnits="userSpaceOnUse" xlink:href="#linearGradient6088-6-1"/><radialGradient id="radialGradient3150" cx="32.373" cy="31.405" r="3.857" fx="32.373" fy="31.405" gradientTransform="matrix(1.2971465,1.801238,-1.7388916,1.2522482,44.616605,-65.651729)" gradientUnits="userSpaceOnUse" xlink:href="#linearGradient6191-8-3"/><radialGradient id="radialGradient3153" cx="32.373" cy="31.405" r="3.857" fx="32.373" fy="31.405" gradientTransform="matrix(0,2.2196953,-2.1428649,-1.2524014e-8,99.303886,-39.86951)" gradientUnits="userSpaceOnUse" xlink:href="#linearGradient6191-7-9"/><radialGradient id="radialGradient3156" cx="32.373" cy="31.405" r="3.857" fx="32.373" fy="31.405" gradientTransform="matrix(2.144061,0.57449942,-0.55461425,2.0698485,-20.001103,-51.611751)" gradientUnits="userSpaceOnUse" xlink:href="#linearGradient6191-9"/><linearGradient id="linearGradient3159" x1="68.313" x2="68.313" y1="52.925" y2="65.922" gradientTransform="matrix(0.16581446,0,0,0.12436084,20.904625,22.576664)" gradientUnits="userSpaceOnUse" xlink:href="#linearGradient3990-3-1"/><linearGradient id="linearGradient3162" x1="92.696" x2="92.696" y1="16.555" y2="48.984" gradientTransform="matrix(0.46791441,0,0,0.46791441,-11.088235,16.759372)" gradientUnits="userSpaceOnUse" xlink:href="#linearGradient4316-4-6-6"/><radialGradient id="radialGradient3165" cx="32.373" cy="31.405" r="3.857" fx="32.373" fy="31.405" gradientTransform="matrix(-2.1428649,0,0,-2.1428649,101.38007,99.30684)" gradientUnits="userSpaceOnUse" xlink:href="#linearGradient6088-74"/><linearGradient id="linearGradient3170" x1="92.696" x2="92.696" y1="16.555" y2="48.984" gradientTransform="matrix(0.84224595,0,0,-0.84224595,-45.558823,59.433157)" gradientUnits="userSpaceOnUse" xlink:href="#linearGradient4316-4-0"/><radialGradient id="radialGradient3173" cx="95.838" cy="95.388" r="9.498" fx="95.838" fy="95.388" gradientTransform="matrix(0.57546739,-8.5809842e-8,8.0624837e-8,0.54069512,-23.241092,-19.788163)" gradientUnits="userSpaceOnUse" xlink:href="#linearGradient4278-3"/><radialGradient id="radialGradient3176" cx="23.896" cy="3.99" r="20.397" gradientTransform="matrix(0,0.52770403,-0.69656002,0,34.779273,14.552384)" gradientUnits="userSpaceOnUse" xlink:href="#linearGradient2867-449-88-871-390-598-476-591-434-148-57-177-691-4"/><linearGradient id="linearGradient3178" x1="7.078" x2="7.078" y1="3.082" y2="45.369" gradientTransform="matrix(0.22110591,0,0,0.22110594,26.693457,26.693296)" gradientUnits="userSpaceOnUse" xlink:href="#linearGradient3087-408-5"/><radialGradient id="radialGradient3183" cx="32" cy="21.239" r="10.498" fx="32" fy="21.239" gradientTransform="matrix(0,2.0115211,-4.6336383,0,130.41512,-43.129397)" gradientUnits="userSpaceOnUse" xlink:href="#linearGradient6042-1"/><radialGradient id="radialGradient3186" cx="91.35" cy="16.448" r="15.639" fx="91.35" fy="16.448" gradientTransform="matrix(0,1.8361326,-1.8361326,0,62.200252,-149.85862)" gradientUnits="userSpaceOnUse" xlink:href="#linearGradient4507-6"/><linearGradient id="linearGradient3189" x1="92.696" x2="92.696" y1="16.555" y2="48.984" gradientTransform="matrix(1.0918003,0,0,1.0918003,-68.539214,-3.5614952)" gradientUnits="userSpaceOnUse" xlink:href="#linearGradient4316-5"/><linearGradient id="linearGradient3193" x1="91.566" x2="91.566" y1="16.543" y2="48.631" gradientTransform="matrix(1.1541889,0,0,1.1541889,-74.284313,-5.5935702)" gradientUnits="userSpaceOnUse" xlink:href="#linearGradient4220-7"/><linearGradient id="linearGradient3197" x1="51.2" x2="51.2" y1="8.114" y2="56.115" gradientTransform="matrix(0.95833332,0,0,0.95833332,-17.176189,1.3333338)" gradientUnits="userSpaceOnUse" xlink:href="#linearGradient4164"/><radialGradient id="radialGradient4080" cx="-30.401" cy="-15.332" r="3.112" fx="-30.401" fy="-15.332" gradientTransform="matrix(-5.1048145,-1.2468444,2.7889068,-11.418305,-156.20764,-244.62831)" gradientUnits="userSpaceOnUse" xlink:href="#linearGradient4004"/><radialGradient id="radialGradient4412" cx="23.896" cy="3.99" r="20.397" fx="23.896" fy="3.99" gradientTransform="matrix(0,0.54326673,-0.71710245,0,34.86131,15.252011)" gradientUnits="userSpaceOnUse" xlink:href="#radialGradient3093-0-3-6"/><radialGradient id="radialGradient4416" cx="-10.315" cy="30.869" r="2.897" fx="-10.315" fy="30.869" gradientTransform="matrix(-3.6003529,-5.1382372,4.4882816,-3.14493,-185.25219,68.258412)" gradientUnits="userSpaceOnUse" xlink:href="#linearGradient4004"/><linearGradient id="linearGradient4426" x1="71.204" x2="71.204" y1="15.369" y2="40.496" gradientTransform="matrix(1.9327345,0,0,1.9327345,-107.49726,-21.689806)" gradientUnits="userSpaceOnUse" xlink:href="#linearGradient4806"/><radialGradient id="radialGradient4430" cx="23.896" cy="3.99" r="20.397" fx="23.896" fy="3.99" gradientTransform="matrix(0,3.4525745,-4.5573371,0,50.184231,-75.344779)" gradientUnits="userSpaceOnUse" xlink:href="#radialGradient3924"/><linearGradient id="linearGradient4433" x1="71.204" x2="71.204" y1="15.369" y2="40.496" gradientTransform="matrix(2.3268746,0,0,2.3268746,-135.94475,-32.842783)" gradientUnits="userSpaceOnUse" xlink:href="#linearGradient4806"/><radialGradient id="radialGradient4437" cx="23.896" cy="3.99" r="20.397" fx="23.896" fy="3.99" gradientTransform="matrix(0,4.1566535,-5.4867089,0,53.892518,-97.439545)" gradientUnits="userSpaceOnUse" xlink:href="#radialGradient3093-0-3-6"/><radialGradient id="radialGradient4440" cx="99.157" cy="186.171" r="62.769" fx="99.157" fy="186.171" gradientTransform="matrix(0.38235362,0,0,0.11948554,-5.913044,34.255311)" gradientUnits="userSpaceOnUse" xlink:href="#linearGradient3820-7-2"/><radialGradient id="radialGradient4468" cx="51.609" cy="49.366" r="4.691" fx="51.609" fy="49.366" gradientTransform="matrix(-1.1913506,1.1501677,-0.44059951,-0.45637561,134.84476,12.312027)" gradientUnits="userSpaceOnUse" xlink:href="#radialGradient3093-0-3-6"/><linearGradient id="linearGradient4470" x1="50.924" x2="60.46" y1="60.247" y2="48.956" gradientUnits="userSpaceOnUse" xlink:href="#radialGradient4281"/><radialGradient id="radialGradient4548" cx="55.154" cy="61.525" r="7.734" fx="55.154" fy="61.525" gradientTransform="matrix(1,0,0,0.25142856,0,46.055953)" gradientUnits="userSpaceOnUse" xlink:href="#linearGradient4542"/><radialGradient id="radialGradient3942" cx="99.157" cy="186.171" r="62.769" fx="99.157" fy="186.171" gradientTransform="matrix(0.38235362,0,0,0.11948554,-5.913044,34.255311)" gradientUnits="userSpaceOnUse" xlink:href="#linearGradient3820-7-2-7"/><linearGradient id="linearGradient3820-7-2-7"><stop id="stop3822-2-6-3" offset="0" style="stop-color:#3d3d3d;stop-opacity:1"/><stop id="stop3864-8-7-6" offset=".5" style="stop-color:#686868;stop-opacity:.49803922"/><stop id="stop3824-1-2-1" offset="1" style="stop-color:#686868;stop-opacity:0"/></linearGradient><radialGradient id="radialGradient3939" cx="23.896" cy="3.99" r="20.397" fx="23.896" fy="3.99" gradientTransform="matrix(0,4.1566535,-5.4867089,0,53.892518,-97.439545)" gradientUnits="userSpaceOnUse" xlink:href="#radialGradient3093-0-3-6-6"/><radialGradient id="radialGradient3093-0-3-6-6" cx="23.896" cy="3.99" r="20.397" gradientTransform="matrix(0,1.2316483,-1.625754,0,18.486966,-28.721977)" gradientUnits="userSpaceOnUse"><stop id="stop3244-9-33-7-0-4" offset="0" style="stop-color:#6e6e6e;stop-opacity:1"/><stop id="stop3246-3-5-0-8-5" offset=".262" style="stop-color:#505050;stop-opacity:1"/><stop id="stop3248-1-7-8-8-3" offset=".661" style="stop-color:#313233;stop-opacity:1"/><stop id="stop3250-9-3-0-5-0" offset="1" style="stop-color:#000;stop-opacity:1"/></radialGradient><linearGradient id="linearGradient3935" x1="71.204" x2="71.204" y1="15.369" y2="40.496" gradientTransform="matrix(2.3268746,0,0,2.3268746,-135.94475,-32.842783)" gradientUnits="userSpaceOnUse" xlink:href="#linearGradient4806-0"/><linearGradient id="linearGradient4806-0"><stop id="stop4808-5" offset="0" style="stop-color:#fff;stop-opacity:1"/><stop id="stop4810-3" offset=".424" style="stop-color:#fff;stop-opacity:.23529412"/><stop id="stop4812-1" offset=".821" style="stop-color:#fff;stop-opacity:.15686275"/><stop id="stop4814-4" offset="1" style="stop-color:#fff;stop-opacity:.39215687"/></linearGradient><radialGradient id="radialGradient3151" cx="23.896" cy="3.99" r="20.397" fx="23.896" fy="3.99" gradientTransform="matrix(0,3.4525745,-4.5573371,0,50.184231,-75.344779)" gradientUnits="userSpaceOnUse" xlink:href="#radialGradient3924-6"/><radialGradient id="radialGradient3924-6" cx="23.896" cy="3.99" r="20.397" gradientTransform="matrix(0,1.2316483,-1.625754,0,18.486966,-28.721977)" gradientUnits="userSpaceOnUse"><stop style="stop-color:#fafafa;stop-opacity:1" id="stop3926-4" offset="0"/><stop style="stop-color:#f0f0f0;stop-opacity:1" id="stop3928-0" offset=".262"/><stop style="stop-color:#e6e6e6;stop-opacity:1" id="stop3930-3" offset=".661"/><stop style="stop-color:#c8c8c8;stop-opacity:1" id="stop3932-2" offset="1"/></radialGradient><linearGradient id="linearGradient3147" x1="71.204" x2="71.204" y1="15.369" y2="40.496" gradientTransform="matrix(1.9327345,0,0,1.9327345,-107.49726,-21.689806)" gradientUnits="userSpaceOnUse" xlink:href="#linearGradient4806-0"/><linearGradient id="linearGradient3228"><stop id="stop3230" offset="0" style="stop-color:#fff;stop-opacity:1"/><stop id="stop3232" offset=".424" style="stop-color:#fff;stop-opacity:.23529412"/><stop id="stop3234" offset=".821" style="stop-color:#fff;stop-opacity:.15686275"/><stop id="stop3236" offset="1" style="stop-color:#fff;stop-opacity:.39215687"/></linearGradient><radialGradient id="radialGradient4080-7" cx="-30.401" cy="-15.332" r="3.112" fx="-30.401" fy="-15.332" gradientTransform="matrix(-5.1048145,-1.2468444,2.7889068,-11.418305,-156.20764,-244.62831)" gradientUnits="userSpaceOnUse" xlink:href="#linearGradient4004-4"/><linearGradient id="linearGradient4004-4"><stop style="stop-color:#75de75;stop-opacity:1" id="stop4006-3" offset="0"/><stop style="stop-color:#53cc53;stop-opacity:1" id="stop4008-1" offset="1"/></linearGradient><radialGradient id="radialGradient4088" cx="-10.315" cy="30.869" r="2.897" fx="-10.315" fy="30.869" gradientTransform="matrix(-3.6003529,-5.1382372,4.4882816,-3.14493,-185.25219,68.258412)" gradientUnits="userSpaceOnUse" xlink:href="#linearGradient4004-4"/><linearGradient id="linearGradient3243"><stop style="stop-color:#75de75;stop-opacity:1" id="stop3245" offset="0"/><stop style="stop-color:#53cc53;stop-opacity:1" id="stop3247" offset="1"/></linearGradient><radialGradient id="radialGradient3950" cx="23.896" cy="3.99" r="20.397" fx="23.896" fy="3.99" gradientTransform="matrix(0,0.54326673,-0.71710245,0,34.86131,15.252011)" gradientUnits="userSpaceOnUse" xlink:href="#radialGradient3093-0-3-6-6"/><radialGradient id="radialGradient3250" cx="23.896" cy="3.99" r="20.397" gradientTransform="matrix(0,1.2316483,-1.625754,0,18.486966,-28.721977)" gradientUnits="userSpaceOnUse"><stop id="stop3252" offset="0" style="stop-color:#6e6e6e;stop-opacity:1"/><stop id="stop3254" offset=".262" style="stop-color:#505050;stop-opacity:1"/><stop id="stop3256" offset=".661" style="stop-color:#313233;stop-opacity:1"/><stop id="stop3258" offset="1" style="stop-color:#000;stop-opacity:1"/></radialGradient><radialGradient id="radialGradient4750" cx="-30.401" cy="-15.332" r="3.112" fx="-30.401" fy="-15.332" gradientTransform="matrix(-5.1048145,-1.2468444,2.7889068,-11.418305,-156.20764,-244.62831)" gradientUnits="userSpaceOnUse" xlink:href="#linearGradient4004-4"/><radialGradient id="radialGradient4752" cx="-10.315" cy="30.869" r="2.897" fx="-10.315" fy="30.869" gradientTransform="matrix(-3.6003529,-5.1382372,4.4882816,-3.14493,-185.25219,68.258412)" gradientUnits="userSpaceOnUse" xlink:href="#linearGradient3243"/><radialGradient id="radialGradient3301" cx="99.157" cy="186.171" r="62.769" fx="99.157" fy="186.171" gradientTransform="matrix(0.38235362,0,0,0.11948554,-5.913044,34.255311)" gradientUnits="userSpaceOnUse" xlink:href="#linearGradient3820-7-2"/><radialGradient id="radialGradient3303" cx="23.896" cy="3.99" r="20.397" fx="23.896" fy="3.99" gradientTransform="matrix(0,4.1566535,-5.4867089,0,53.892518,-97.439545)" gradientUnits="userSpaceOnUse" xlink:href="#radialGradient3093-0-3-6"/><linearGradient id="linearGradient3305" x1="71.204" x2="71.204" y1="15.369" y2="40.496" gradientTransform="matrix(2.3268746,0,0,2.3268746,-135.94475,-32.842783)" gradientUnits="userSpaceOnUse" xlink:href="#linearGradient4806"/><radialGradient id="radialGradient3307" cx="23.896" cy="3.99" r="20.397" fx="23.896" fy="3.99" gradientTransform="matrix(0,3.4525745,-4.5573371,0,50.184231,-75.344779)" gradientUnits="userSpaceOnUse" xlink:href="#radialGradient3924"/><linearGradient id="linearGradient3309" x1="71.204" x2="71.204" y1="15.369" y2="40.496" gradientTransform="matrix(1.9327345,0,0,1.9327345,-107.49726,-21.689806)" gradientUnits="userSpaceOnUse" xlink:href="#linearGradient4806"/><radialGradient id="radialGradient3311" cx="-30.401" cy="-15.332" r="3.112" fx="-30.401" fy="-15.332" gradientTransform="matrix(-5.1048145,-1.2468444,2.7889068,-11.418305,-156.20764,-244.62831)" gradientUnits="userSpaceOnUse" xlink:href="#linearGradient4004-4"/><radialGradient id="radialGradient3313" cx="-10.315" cy="30.869" r="2.897" fx="-10.315" fy="30.869" gradientTransform="matrix(-3.6003529,-5.1382372,4.4882816,-3.14493,-185.25219,68.258412)" gradientUnits="userSpaceOnUse" xlink:href="#linearGradient3243"/><radialGradient id="radialGradient3315" cx="23.896" cy="3.99" r="20.397" fx="23.896" fy="3.99" gradientTransform="matrix(0,0.54326673,-0.71710245,0,34.86131,15.252011)" gradientUnits="userSpaceOnUse" xlink:href="#radialGradient3093-0-3-6"/><radialGradient id="radialGradient3317" cx="51.609" cy="49.366" r="4.691" fx="51.609" fy="49.366" gradientTransform="matrix(-1.1913506,1.1501677,-0.44059951,-0.45637561,134.84476,12.312027)" gradientUnits="userSpaceOnUse" xlink:href="#radialGradient3093-0-3-6"/><linearGradient id="linearGradient3319" x1="50.924" x2="60.46" y1="60.247" y2="48.956" gradientUnits="userSpaceOnUse" xlink:href="#radialGradient4281"/><radialGradient id="radialGradient3341" cx="23.896" cy="3.99" r="20.397" fx="23.896" fy="3.99" gradientTransform="matrix(0,0.54326673,-0.71710245,0,34.86131,15.252011)" gradientUnits="userSpaceOnUse" xlink:href="#radialGradient3093-0-3-6"/><radialGradient id="radialGradient3345" cx="-10.315" cy="30.869" r="2.897" fx="-10.315" fy="30.869" gradientTransform="matrix(-3.6003529,-5.1382372,4.4882816,-3.14493,-185.25219,68.258412)" gradientUnits="userSpaceOnUse" xlink:href="#linearGradient3243"/><linearGradient id="linearGradient3355" x1="71.204" x2="71.204" y1="15.369" y2="40.496" gradientTransform="matrix(1.9327345,0,0,1.9327345,-107.49726,-21.689806)" gradientUnits="userSpaceOnUse" xlink:href="#linearGradient4806"/><radialGradient id="radialGradient3370" cx="23.896" cy="3.99" r="20.397" fx="23.896" fy="3.99" gradientTransform="matrix(0,3.4525745,-4.5573371,0,50.184231,-75.344779)" gradientUnits="userSpaceOnUse" xlink:href="#radialGradient3924"/><linearGradient id="linearGradient3373" x1="71.204" x2="71.204" y1="15.369" y2="40.496" gradientTransform="matrix(2.3268746,0,0,2.3268746,-135.94475,-32.842783)" gradientUnits="userSpaceOnUse" xlink:href="#linearGradient4806"/><radialGradient id="radialGradient3377" cx="23.896" cy="3.99" r="20.397" fx="23.896" fy="3.99" gradientTransform="matrix(0,4.1566535,-5.4867089,0,53.892518,-97.439545)" gradientUnits="userSpaceOnUse" xlink:href="#radialGradient3093-0-3-6"/><radialGradient id="radialGradient3380" cx="99.157" cy="186.171" r="62.769" fx="99.157" fy="186.171" gradientTransform="matrix(0.38235362,0,0,0.11948554,-5.913044,34.255311)" gradientUnits="userSpaceOnUse" xlink:href="#linearGradient3820-7-2"/><radialGradient id="radialGradient3392" cx="51.609" cy="49.366" r="4.691" fx="51.609" fy="49.366" gradientTransform="matrix(-1.1913506,1.1501677,-0.44059951,-0.45637561,134.84476,12.312027)" gradientUnits="userSpaceOnUse" xlink:href="#radialGradient3093-0-3-6"/><linearGradient id="linearGradient3394" x1="50.924" x2="60.46" y1="60.247" y2="48.956" gradientUnits="userSpaceOnUse" xlink:href="#radialGradient4281"/><radialGradient id="radialGradient3396" cx="55.154" cy="61.525" r="7.734" fx="55.154" fy="61.525" gradientTransform="matrix(1,0,0,0.25142856,0,46.055953)" gradientUnits="userSpaceOnUse" xlink:href="#linearGradient4542"/><radialGradient id="radialGradient3449" cx="99.157" cy="186.171" r="62.769" fx="99.157" fy="186.171" gradientTransform="matrix(0.38235362,0,0,0.11948554,-5.913044,34.255311)" gradientUnits="userSpaceOnUse" xlink:href="#linearGradient3820-7-2"/><radialGradient id="radialGradient3451" cx="23.896" cy="3.99" r="20.397" fx="23.896" fy="3.99" gradientTransform="matrix(0,4.1566535,-5.4867089,0,53.892518,-97.439545)" gradientUnits="userSpaceOnUse" xlink:href="#radialGradient3093-0-3-6"/><linearGradient id="linearGradient3453" x1="71.204" x2="71.204" y1="15.369" y2="40.496" gradientTransform="matrix(2.3268746,0,0,2.3268746,-135.94475,-32.842783)" gradientUnits="userSpaceOnUse" xlink:href="#linearGradient4806"/><radialGradient id="radialGradient3455" cx="23.896" cy="3.99" r="20.397" fx="23.896" fy="3.99" gradientTransform="matrix(0,3.4525745,-4.5573371,0,50.184231,-75.344779)" gradientUnits="userSpaceOnUse" xlink:href="#radialGradient3924"/><linearGradient id="linearGradient3457" x1="71.204" x2="71.204" y1="15.369" y2="40.496" gradientTransform="matrix(1.9327345,0,0,1.9327345,-107.49726,-21.689806)" gradientUnits="userSpaceOnUse" xlink:href="#linearGradient4806"/><radialGradient id="radialGradient3459" cx="-30.401" cy="-15.332" r="3.112" fx="-30.401" fy="-15.332" gradientTransform="matrix(-5.1048145,-1.2468444,2.7889068,-11.418305,-156.20764,-244.62831)" gradientUnits="userSpaceOnUse" xlink:href="#linearGradient4004-4"/><radialGradient id="radialGradient3461" cx="-10.315" cy="30.869" r="2.897" fx="-10.315" fy="30.869" gradientTransform="matrix(-3.6003529,-5.1382372,4.4882816,-3.14493,-185.25219,68.258412)" gradientUnits="userSpaceOnUse" xlink:href="#linearGradient3243"/><radialGradient id="radialGradient3463" cx="23.896" cy="3.99" r="20.397" fx="23.896" fy="3.99" gradientTransform="matrix(0,0.54326673,-0.71710245,0,34.86131,15.252011)" gradientUnits="userSpaceOnUse" xlink:href="#radialGradient3093-0-3-6"/><radialGradient id="radialGradient3465" cx="51.609" cy="49.366" r="4.691" fx="51.609" fy="49.366" gradientTransform="matrix(-1.1913506,1.1501677,-0.44059951,-0.45637561,134.84476,12.312027)" gradientUnits="userSpaceOnUse" xlink:href="#radialGradient3093-0-3-6"/><linearGradient id="linearGradient3467" x1="50.924" x2="60.46" y1="60.247" y2="48.956" gradientUnits="userSpaceOnUse" xlink:href="#radialGradient4281"/><radialGradient id="radialGradient3469" cx="55.154" cy="61.525" r="7.734" fx="55.154" fy="61.525" gradientTransform="matrix(1,0,0,0.25142856,0,46.055953)" gradientUnits="userSpaceOnUse" xlink:href="#linearGradient4542"/></defs><metadata id="metadata3494"/><g id="g3398" transform="translate(-0.0346398,0)"><path id="path3818-0" d="m 55.999998,56.499998 a 24,7.4999998 0 1 1 -47.999999,0 24,7.4999998 0 1 1 47.999999,0 z" style="fill:url(#radialGradient3449);fill-opacity:1;stroke:none"/><path id="path2555-7" d="m 32,2.4999994 c -16.277082,0 -29.5,13.2229146 -29.5,29.4999976 0,16.277083 13.222918,29.500005 29.5,29.5 16.27708,0 29.50001,-13.222917 29.5,-29.5 C 61.5,15.722914 48.27708,2.4999994 32,2.4999994 z" style="color:#000;fill:url(#radialGradient3451);fill-opacity:1;fill-rule:nonzero;stroke:none;stroke-width:1;marker:none;visibility:visible;display:inline;overflow:visible;enable-background:accumulate"/><path id="path2555-7-1" d="m 32.03464,2.499999 c -16.277082,0 -29.5000004,13.222915 -29.5000004,29.499998 0,16.277083 13.2229184,29.500005 29.5000004,29.5 16.27708,0 29.50001,-13.222917 29.5,-29.5 0,-16.277083 -13.22292,-29.499998 -29.5,-29.499998 z" style="opacity:.5;color:#000;fill:none;stroke:#000;stroke-width:1;stroke-linecap:round;stroke-linejoin:round;stroke-miterlimit:4;stroke-opacity:1;stroke-dasharray:none;stroke-dashoffset:0;marker:none;visibility:visible;display:inline;overflow:visible;enable-background:accumulate"/><path id="path3019" d="m 60.50001,31.999999 c 0,15.740115 -12.7599,28.499999 -28.50002,28.499999 -15.740099,0 -28.499991,-12.759884 -28.499991,-28.499999 0,-15.740116 12.759892,-28.5000013 28.499991,-28.5000013 15.74012,0 28.50002,12.7598853 28.50002,28.5000013 z" style="opacity:.3;color:#000;fill:none;stroke:url(#linearGradient3453);stroke-width:1;stroke-linecap:round;stroke-linejoin:round;stroke-miterlimit:4;stroke-opacity:1;stroke-dasharray:none;stroke-dashoffset:0;marker:none;visibility:visible;display:inline;overflow:visible;enable-background:accumulate"/><path style="color:#000;fill:url(#radialGradient3455);fill-opacity:1;fill-rule:nonzero;stroke:none;stroke-width:1;marker:none;visibility:visible;display:inline;overflow:visible;enable-background:accumulate" id="path3132" d="m 32,7.6664028 c -13.519972,0 -24.5031121,10.9831372 -24.5031121,24.5031102 0,13.519972 10.9831401,24.503116 24.5031121,24.503112 13.51997,0 24.50312,-10.98314 24.503112,-24.503112 C 56.503112,18.64954 45.51997,7.6664028 32,7.6664028 z"/><g style="stroke-width:1;stroke-miterlimit:4;stroke-dasharray:none" id="g4442" transform="matrix(0.70710678,-0.70710678,0.70710678,0.70710678,-13.587872,32.11206)"><g style="stroke-width:1;stroke-miterlimit:4;stroke-dasharray:none" id="g4444" transform="matrix(0.70710678,-0.70710678,-0.70710678,-0.70710678,32.756674,78.456605)"><rect id="rect4446" width="2.013" height="5.513" x="-1.596" y="23.44" rx=".343" ry=".343" transform="matrix(0.70710678,-0.70710678,0.70710678,0.70710678,0,0)" style="fill:#fff;fill-opacity:1;stroke:none"/><rect style="fill:#fff;fill-opacity:1;stroke:none" id="rect4448" width="2.013" height="5.513" x="-1.596" y="62.558" rx=".343" ry=".343" transform="matrix(0.70710678,-0.70710678,0.70710678,0.70710678,0,0)"/></g><rect id="rect4450" width="2.013" height="5.513" x="-32.777" y="9.899" rx=".343" ry=".343" transform="scale(-1,1)" style="fill:gray;fill-opacity:1;stroke:none"/><rect style="fill:gray;fill-opacity:1;stroke:none" id="rect4452" width="2.013" height="5.513" x="-32.777" y="49.018" rx=".343" ry=".343" transform="scale(-1,1)"/><g style="stroke-width:1;stroke-miterlimit:4;stroke-dasharray:none" id="g4454" transform="matrix(-0.70710678,0.70710678,-0.70710678,-0.70710678,77.923118,33.29016)"><rect style="fill:#fff;fill-opacity:1;stroke:none" id="rect4456" width="2.013" height="5.513" x="-1.596" y="23.44" rx=".343" ry=".343" transform="matrix(0.70710678,-0.70710678,0.70710678,0.70710678,0,0)"/><rect id="rect4458" width="2.013" height="5.513" x="-1.596" y="62.558" rx=".343" ry=".343" transform="matrix(0.70710678,-0.70710678,0.70710678,0.70710678,0,0)" style="fill:#fff;fill-opacity:1;stroke:none"/></g><rect style="fill:gray;fill-opacity:1;stroke:none" id="rect4460" width="2.013" height="5.513" x="-33.222" y="9.454" rx=".343" ry=".343" transform="matrix(0,-1,1,0,0,0)"/><rect id="rect4462" width="2.013" height="5.513" x="-33.222" y="48.573" rx=".343" ry=".343" transform="matrix(0,-1,1,0,0,0)" style="fill:gray;fill-opacity:1;stroke:none"/></g><path style="opacity:.5;color:#000;fill:none;stroke:#000;stroke-width:1;stroke-linecap:round;stroke-linejoin:round;stroke-miterlimit:4;stroke-opacity:1;stroke-dasharray:none;stroke-dashoffset:0;marker:none;visibility:visible;display:inline;overflow:visible;enable-background:accumulate" id="path3134" d="m 32,7.6664025 c -13.519972,0 -24.5031121,10.9831375 -24.5031121,24.5031105 0,13.519972 10.9831401,24.503116 24.5031121,24.503112 13.51997,0 24.50312,-10.98314 24.503112,-24.503112 C 56.503112,18.64954 45.51997,7.6664025 32,7.6664025 z"/><path style="opacity:.8;color:#000;fill:none;stroke:url(#linearGradient3457);stroke-width:1;stroke-linecap:round;stroke-linejoin:round;stroke-miterlimit:4;stroke-opacity:1;stroke-dasharray:none;stroke-dashoffset:0;marker:none;visibility:visible;display:inline;overflow:visible;enable-background:accumulate" id="path3136" d="m 55.506778,32.169515 c 0,12.864037 -10.432823,23.501245 -23.506786,23.501245 -12.886121,0 -23.5084284,-10.427286 -23.5084284,-23.501245 0,-12.85299 10.4344824,-23.5162496 23.5084284,-23.5162496 12.864041,0 23.506786,10.4422886 23.506786,23.5162496 z"/><g style="opacity:.2;fill:#000;stroke-width:1;stroke-miterlimit:4;stroke-dasharray:none" id="g4151" transform="translate(-0.47927855,1.9535917)"><path id="rect4153" d="m -49.188926,-27.414376 c 0,0 1.919414,-0.299181 2.929903,-0.406161 1.01049,-0.106979 3.133032,-0.235716 3.133032,-0.235716 0.18882,-0.01999 0.342811,0.152859 0.342734,0.342733 l -0.01308,32.2240124 c -7.7e-5,0.1898742 -0.156542,0.3799464 -0.342734,0.3427333 l -4.41827,-0.8830524 c -0.186191,-0.037213 -0.267919,-0.2214229 -0.37011,-0.5288809 -1.068491,-3.21474542 -1.604208,-30.5129354 -1.604208,-30.5129354 -0.01,-0.189609 0.153914,-0.322743 0.342733,-0.342733 z" transform="matrix(-0.76604444,-0.64278761,-0.64278761,0.76604444,0,0)" style="fill:#000;fill-opacity:1;stroke:none"/></g><g style="stroke-width:1;stroke-miterlimit:4;stroke-dasharray:none" id="g4014" transform="translate(-0.83283194,0.09743633)"><rect id="rect3988" width="6.224" height="37.81" x="-49.021" y="-32.957" rx=".343" ry=".343" transform="matrix(-0.76604444,-0.64278761,-0.64278761,0.76604444,0,0)" style="fill:url(#radialGradient3459);fill-opacity:1;stroke:none"/></g><path id="rect4160" d="m 12.703868,24.458469 2.617099,-4.549749 c 0.09468,-0.164587 0.310081,-0.230598 0.468182,-0.125449 l 16.462343,10.948642 c 0.158102,0.105148 0.218112,0.302454 0.125449,0.468182 l -2.054625,3.674734 c -0.09268,0.165721 -0.462177,0.394986 -0.640058,0.328575 C 24.147936,33.13719 13.501165,26.895387 13.501165,26.895387 13.19054,26.7395 12.515277,24.786264 12.703842,24.458454 z" style="opacity:.2;fill:#000;fill-opacity:1;stroke:none"/><g style="opacity:.7;fill:none;stroke:#5a2ca0;stroke-width:1;stroke-miterlimit:4;stroke-dasharray:none" id="g4036" transform="translate(-0.83283194,0.09743633)"><path id="rect4038" d="m -48.677828,-32.956573 5.538759,0 c 0.189875,0 0.342734,0.152859 0.342734,0.342733 l 0,37.1243324 c 0,0.1898742 -0.152859,0.3427333 -0.342734,0.3427333 l -5.538759,0 c -0.189874,0 -0.251877,-0.2605847 -0.252341,-0.4504583 l -0.09039,-37.0166074 c -4.64e-4,-0.189873 0.152859,-0.342733 0.342733,-0.342733 z" transform="matrix(-0.76604444,-0.64278761,-0.64278761,0.76604444,0,0)" style="stroke:#008033;stroke-width:1;stroke-miterlimit:4;stroke-dasharray:none"/></g><rect id="rect3986" width="5.795" height="19.677" x="-14.982" y="23.212" rx=".343" ry=".343" transform="matrix(0.5,-0.8660254,0.8660254,0.5,0,0)" style="fill:url(#radialGradient3461);fill-opacity:1;stroke:none"/><rect style="opacity:.7;fill:none;stroke:#008033;stroke-width:1;stroke-miterlimit:4;stroke-opacity:1;stroke-dasharray:none" id="rect4026" width="5.795" height="19.677" x="-14.982" y="23.212" rx=".343" ry=".343" transform="matrix(0.5,-0.8660254,0.8660254,0.5,0,0)"/><path id="path3944" d="m 32,28.31392 c -2.127384,0 -3.855594,1.72821 -3.855594,3.855594 0,2.127383 1.72821,3.855594 3.855594,3.855594 2.127383,0 3.855595,-1.728211 3.855594,-3.855594 0,-2.127384 -1.728211,-3.855594 -3.855594,-3.855594 z" style="color:#000;fill:url(#radialGradient3463);fill-opacity:1;fill-rule:nonzero;stroke:none;stroke-width:1;marker:none;visibility:visible;display:inline;overflow:visible;enable-background:accumulate"/><path id="path3946" d="m 32,28.31392 c -2.127384,0 -3.855594,1.72821 -3.855594,3.855594 0,2.127383 1.72821,3.855594 3.855594,3.855594 2.127383,0 3.855595,-1.728211 3.855594,-3.855594 0,-2.127384 -1.728211,-3.855594 -3.855594,-3.855594 z" style="opacity:.3;color:#000;fill:none;stroke:#000;stroke-width:1;stroke-linecap:round;stroke-linejoin:round;stroke-miterlimit:4;stroke-opacity:1;stroke-dasharray:none;stroke-dashoffset:0;marker:none;visibility:visible;display:inline;overflow:visible;enable-background:accumulate"/><g style="stroke-width:1;stroke-miterlimit:4;stroke-dasharray:none" id="g4234"><g style="stroke-width:1;stroke-miterlimit:4;stroke-dasharray:none" id="g4137" transform="matrix(0.70710678,-0.70710678,-0.70710678,-0.70710678,32.756674,78.456605)"><rect style="fill:#fff;fill-opacity:1;stroke:none" id="rect4139" width="2.013" height="5.513" x="-1.596" y="23.44" rx=".343" ry=".343" transform="matrix(0.70710678,-0.70710678,0.70710678,0.70710678,0,0)"/><rect id="rect4141" width="2.013" height="5.513" x="-1.596" y="62.558" rx=".343" ry=".343" transform="matrix(0.70710678,-0.70710678,0.70710678,0.70710678,0,0)" style="fill:#fff;fill-opacity:1;stroke:none"/></g><rect style="fill:gray;fill-opacity:1;stroke:none" id="rect4074" width="2.013" height="5.513" x="-32.777" y="9.899" rx=".343" ry=".343" transform="scale(-1,1)"/><rect id="rect4078" width="2.013" height="5.513" x="-32.777" y="49.018" rx=".343" ry=".343" transform="scale(-1,1)" style="fill:gray;fill-opacity:1;stroke:none"/><g style="stroke-width:1;stroke-miterlimit:4;stroke-dasharray:none" id="g4133" transform="matrix(-0.70710678,0.70710678,-0.70710678,-0.70710678,77.923118,33.29016)"><rect id="rect4121" width="2.013" height="5.513" x="-1.596" y="23.44" rx=".343" ry=".343" transform="matrix(0.70710678,-0.70710678,0.70710678,0.70710678,0,0)" style="fill:#fff;fill-opacity:1;stroke:none"/><rect style="fill:#fff;fill-opacity:1;stroke:none" id="rect4125" width="2.013" height="5.513" x="-1.596" y="62.558" rx=".343" ry=".343" transform="matrix(0.70710678,-0.70710678,0.70710678,0.70710678,0,0)"/></g><rect id="rect4056" width="2.013" height="5.513" x="-33.222" y="9.454" rx=".343" ry=".343" transform="matrix(0,-1,1,0,0,0)" style="fill:gray;fill-opacity:1;stroke:none"/><rect style="fill:gray;fill-opacity:1;stroke:none" id="rect4062" width="2.013" height="5.513" x="-33.222" y="48.573" rx=".343" ry=".343" transform="matrix(0,-1,1,0,0,0)"/></g><g id="g3382" transform="translate(-1.0606602,0)"><g id="g4323" transform="matrix(0.99920982,0.03974582,-0.03974582,0.99920982,2.1304407,-1.4150287)" style="stroke-width:1;stroke-miterlimit:4;stroke-dasharray:none"><path id="path4246" d="m 55.4375,47.5625 c -1.23786,0.004 -2.981788,1.005363 -4.46875,2.6875 -1.982616,2.24285 -2.722446,4.838763 -1.65625,5.78125 0.532912,0.532912 0.813838,0.813838 1.21875,1.21875 1.066196,0.942487 3.548634,-0.1009 5.53125,-2.34375 1.982616,-2.24285 2.722446,-4.807513 1.65625,-5.75 -0.575207,-0.575207 -0.783978,-0.783978 -1.25,-1.25 -0.266549,-0.235622 -0.61863,-0.345084 -1.03125,-0.34375 z" style="fill:url(#radialGradient3465);fill-opacity:1;stroke:none"/><path style="opacity:.5;fill:none;stroke:#000;stroke-width:1;stroke-miterlimit:4;stroke-opacity:1;stroke-dasharray:none" id="path4255" d="m 55.4375,47.5625 c -1.23786,0.004 -2.981788,1.005363 -4.46875,2.6875 -1.982616,2.24285 -2.722446,4.838763 -1.65625,5.78125 0.532912,0.532912 0.813838,0.813838 1.21875,1.21875 1.066196,0.942487 3.548634,-0.1009 5.53125,-2.34375 1.982616,-2.24285 2.722446,-4.807513 1.65625,-5.75 -0.575207,-0.575207 -0.783978,-0.783978 -1.25,-1.25 -0.266549,-0.235622 -0.61863,-0.345084 -1.03125,-0.34375 z"/><path style="fill:url(#linearGradient3467);fill-opacity:1;stroke:none" id="path4251" d="m 58.795319,48.149691 c -1.692696,0.0055 -4.077409,1.374771 -6.110737,3.674989 -2.711104,3.066957 -3.722775,6.616706 -2.264818,7.905499 0.728724,0.728724 1.112872,1.112872 1.666564,1.666564 1.457957,1.288793 4.852536,-0.137974 7.56364,-3.204932 2.711104,-3.066957 3.722775,-6.573974 2.264818,-7.862766 -0.786559,-0.78656 -1.072041,-1.072041 -1.709297,-1.709297 -0.364489,-0.322199 -0.845938,-0.471881 -1.41017,-0.470057 z"/><path id="path4313" d="m 58.795319,48.149691 c -1.692696,0.0055 -4.077409,1.374771 -6.110737,3.674989 -2.711104,3.066957 -3.722775,6.616706 -2.264818,7.905499 0.728724,0.728724 1.112872,1.112872 1.666564,1.666564 1.457957,1.288793 4.852536,-0.137974 7.56364,-3.204932 2.711104,-3.066957 3.722775,-6.573974 2.264818,-7.862766 -0.786559,-0.78656 -1.072041,-1.072041 -1.709297,-1.709297 -0.364489,-0.322199 -0.845938,-0.471881 -1.41017,-0.470057 z" style="opacity:.2;fill:#1c2224;fill-opacity:1;stroke:none"/><path id="path4253" d="m 61.231028,56.984177 c 0,2.617733 -0.934908,4.739825 -2.088175,4.739825 -1.153267,0 -2.088175,-2.122092 -2.088175,-4.739825 0,-2.617734 0.934908,-4.739826 2.088175,-4.739826 1.153267,0 2.088175,2.122092 2.088175,4.739826 z" transform="matrix(1.050267,0.92244067,-0.9267954,1.0453321,47.851001,-58.210695)" style="fill:#95989a;fill-opacity:1;stroke:none"/><path id="path4311" d="m 58.795319,48.149691 c -1.692696,0.0055 -4.077409,1.374771 -6.110737,3.674989 -2.711104,3.066957 -3.722775,6.616706 -2.264818,7.905499 0.728724,0.728724 1.112872,1.112872 1.666564,1.666564 1.457957,1.288793 4.852536,-0.137974 7.56364,-3.204932 2.711104,-3.066957 3.722775,-6.573974 2.264818,-7.862766 -0.786559,-0.78656 -1.072041,-1.072041 -1.709297,-1.709297 -0.364489,-0.322199 -0.845938,-0.471881 -1.41017,-0.470057 z" style="opacity:.5;fill:none;stroke:#000;stroke-width:1;stroke-miterlimit:4;stroke-opacity:1;stroke-dasharray:none"/></g><path style="opacity:.3;fill:url(#radialGradient3469);fill-opacity:1;stroke:none" id="path4540" d="m 62.888308,61.525127 c 0,1.073942 -3.462621,1.944544 -7.733981,1.944544 -4.271359,0 -7.73398,-0.870602 -7.73398,-1.944544 0,-1.073941 3.462621,-1.944543 7.73398,-1.944543 4.27136,0 7.733981,0.870602 7.733981,1.944543 z" transform="translate(-0.15625,0.5)"/></g></g></svg>